<svg width="12" height="12" viewBox="0 0 12 12" fill="none" xmlns="http://www.w3.org/2000/svg">
<path fill-rule="evenodd" clip-rule="evenodd" d="M2 0C1.90722 3.11334e-06 1.81627 0.0258204 1.73733 0.0745635C1.65839 0.123307 1.59456 0.193053 1.553 0.276L0.053 3.276C0.0181527 3.34553 5.20794e-06 3.42223 0 3.5V5.5C0 5.63261 0.0526785 5.75979 0.146447 5.85355C0.240215 5.94732 0.367392 6 0.5 6H1V11.5C1 11.6326 1.05268 11.7598 1.14645 11.8536C1.24021 11.9473 1.36739 12 1.5 12H10.5C10.6326 12 10.7598 11.9473 10.8536 11.8536C10.9473 11.7598 11 11.6326 11 11.5V6H11.5C11.6326 6 11.7598 5.94732 11.8536 5.85355C11.9473 5.75979 12 5.63261 12 5.5V3.5C12 3.42223 11.9818 3.34553 11.947 3.276L10.447 0.276C10.4054 0.193053 10.3416 0.123307 10.2627 0.0745635C10.1837 0.0258204 10.0928 3.11334e-06 10 0H2ZM11 3.618V5H9V4H8V5H6.5V4H5.5V5H4V4H3V5H1V3.618L2.309 1H9.691L11 3.618ZM4.5 8H5.5V7H4.5V8ZM6.5 8H7.5V7H6.5V8ZM5.5 9.5H4.5V8.5H5.5V9.5ZM6.5 9.5H7.5V8.5H6.5V9.5Z" fill="#5F27ED"/>
</svg>
